# xmcd
#
# Track frame offsets:
#	150
#	16120
#	34373
#	52063
#	68558
#	93418
#	113135
#
# Disc length: 2730 seconds
#
# Revision: 1
# Processed by: cddbd v1.4PL0 Copyright (c) Steve Scherf et al.
# Submitted via: audiograbber 1.82.02
#
DISCID=550aa807
DTITLE=Status Quo - The Ultimate Collection - CD3
DYEAR=2003
DGENRE=Rock
TTITLE0=Raining In My Heart (ft.Brain May)
TTITLE1=Fun, Fun, Fun (ft.Beach Boys)
TTITLE2=All Around My Hat (ft.Maddy Prior)
TTITLE3=Don't Stop
TTITLE4=Caroline (Live)
TTITLE5=Whatever You Want (Live)
TTITLE6=Roadhouse Medley (Live)
EXTD=Ripped by DjMaxX!
EXTT0=
EXTT1=
EXTT2=
EXTT3=
EXTT4=
EXTT5=
EXTT6=
PLAYORDER=
